<svg width="31" height="35" viewBox="0 0 31 35" fill="none" xmlns="http://www.w3.org/2000/svg">
<path d="M14.986 0.000628671C14.986 0.000628671 7.72705 -0.227371 5.94805 8.00063C5.36905 10.6816 7.68697 12.5656 6.31097 14.5946C4.93497 16.6236 0.732968 18.8707 2.03497 21.6947C3.33697 24.5187 -1.65403 27.2086 0.58697 31.0416C2.82797 34.8746 27.24 33.9817 29.197 31.5177C31.154 29.0537 30.487 24.3736 28.697 22.4176C26.997 20.5626 28.048 17.3437 28.403 15.8937C29.132 12.9257 26.8851 11.1866 25.5101 9.73964C24.1351 8.29264 23.735 0.109629 14.986 0.000628671Z" fill="#1D1D1B"/>
<path d="M6.18311 21.2916C6.77841 20.9581 7.40896 20.6919 8.06311 20.4977L11.3241 19.5167L11.5791 19.4387L11.6791 19.4077L11.7681 19.3827L14.8451 18.4586L17.9341 19.1077V19.3767C17.9271 19.3767 17.927 19.3827 17.921 19.3827L18.0851 19.4347H18.1111L18.5581 19.5697L21.6221 20.4937C22.3115 20.6992 22.9742 20.9859 23.5961 21.3477C25.0487 22.1754 26.2565 23.3728 27.0967 24.8182C27.9369 26.2637 28.3797 27.9057 28.3801 29.5776V33.4536C28.38 33.5554 28.3597 33.6561 28.3207 33.7501C28.2816 33.8441 28.2244 33.9295 28.1523 34.0013C28.0803 34.0732 27.9948 34.1302 27.9008 34.1691C27.8067 34.2079 27.7059 34.2278 27.6041 34.2277H2.08411C1.98233 34.2278 1.88155 34.2079 1.78748 34.1691C1.6934 34.1302 1.60782 34.0732 1.53577 34.0013C1.46371 33.9295 1.4065 33.8441 1.36743 33.7501C1.32836 33.6561 1.30824 33.5554 1.30811 33.4536V29.5776C1.30901 27.8875 1.76135 26.2282 2.61841 24.7715C3.47547 23.3147 4.70615 22.1134 6.18311 21.2916Z" fill="url(#paint0_linear_14_7)"/>
<path d="M7.32791 10.8937C7.41891 10.1137 8.17781 10.2497 8.38381 10.3007C8.36181 10.0587 8.35085 9.81766 8.35085 9.57166C8.35085 5.45766 11.2599 2.1217 14.8509 2.1217C18.4419 2.1217 21.3449 5.45766 21.3449 9.57166C21.3449 9.81766 21.3349 10.0626 21.3139 10.3026C21.4749 10.2596 22.2948 10.0807 22.3888 10.8937C22.4968 11.7937 21.0629 13.6227 20.4789 13.2937C19.9096 14.4536 19.0327 15.4349 17.9439 16.1306V19.3806C17.9369 19.3806 17.9368 19.3867 17.9308 19.3867C17.0365 20.0361 15.9596 20.3859 14.8544 20.3859C13.7491 20.3859 12.6722 20.0361 11.7779 19.3867C11.7709 19.3867 11.7709 19.3806 11.7649 19.3806V16.1306C10.6773 15.4375 9.80187 14.458 9.23489 13.2997C8.63789 13.5997 7.22191 11.7927 7.32791 10.8937Z" fill="white"/>
<defs>
<linearGradient id="paint0_linear_14_7" x1="1.30811" y1="26.3431" x2="28.3801" y2="26.3431" gradientUnits="userSpaceOnUse">
<stop stop-color="#009DB3"/>
<stop offset="1" stop-color="#00CFEB"/>
</linearGradient>
</defs>
</svg>
