<svg width="30" height="31" viewBox="0 0 30 31" fill="none" xmlns="http://www.w3.org/2000/svg">
<path d="M29.8381 3.91711C29.696 4.33018 29.4445 4.69693 29.1102 4.97815C28.7322 5.33915 28.3722 5.71819 28.0292 6.06519L24.4061 2.43518C24.8871 1.91318 25.4011 1.33518 25.9421 0.78418C26.099 0.67329 26.2734 0.589704 26.4581 0.537109H27.0411C27.4711 0.710711 27.8516 0.987561 28.1492 1.34314C28.4352 1.64314 28.7312 1.9432 29.0322 2.2262C29.3868 2.52471 29.6633 2.90488 29.8381 3.33411V3.91711Z" fill="#53575A"/>
<path d="M18.8731 5.42614C18.7709 5.47947 18.6744 5.54308 18.5852 5.61609C16.0618 8.13409 13.5398 10.6531 11.0191 13.1731C10.629 13.5534 10.3373 14.0229 10.1692 14.5411C9.79117 15.7121 9.38518 16.8751 9.00718 18.0461C8.86881 18.447 8.83 18.8755 8.89426 19.2947C8.95853 19.7139 9.12397 20.1111 9.37608 20.4521C9.62818 20.7931 9.95949 21.0676 10.3414 21.252C10.7233 21.4363 11.1443 21.5249 11.5681 21.5101C11.8405 21.4964 12.1097 21.4453 12.3681 21.3582C13.5681 20.9712 14.7621 20.5672 15.9581 20.1702C16.4104 20.0174 16.8199 19.7589 17.1522 19.4161C19.6902 16.8735 22.2308 14.3321 24.7741 11.7921C24.8521 11.7131 24.9362 11.6392 25.0642 11.5182V11.8601C25.0642 16.9101 25.0642 21.9608 25.0642 27.0121C25.0867 27.4603 25.0149 27.9083 24.8536 28.327C24.6923 28.7458 24.445 29.1261 24.1277 29.4434C23.8103 29.7606 23.4299 30.0079 23.0111 30.1691C22.5923 30.3302 22.1443 30.4018 21.6961 30.3791H3.36912C2.9209 30.4011 2.47302 30.3288 2.05442 30.1671C1.63582 30.0054 1.25586 29.7578 0.93882 29.4402C0.621784 29.1226 0.374822 28.7421 0.213845 28.3232C0.0528677 27.9044 -0.0186238 27.4564 0.00412783 27.0082C0.00412783 20.8988 0.00412783 14.7898 0.00412783 8.68115C-0.0177204 8.2354 0.0536422 7.79 0.213723 7.37341C0.373803 6.95682 0.619092 6.57826 0.933815 6.26184C1.24854 5.94542 1.62588 5.69808 2.0416 5.53576C2.45733 5.37345 2.90226 5.29963 3.34812 5.31909H18.7901L18.8731 5.42614Z" fill="#53575A"/>
<path d="M22.9991 3.68115L26.6992 7.3811C26.6472 7.4361 26.5771 7.51218 26.5041 7.58118C22.9901 11.0965 19.4738 14.6095 15.9552 18.1201C15.7618 18.307 15.5306 18.4503 15.2772 18.5402C14.1522 18.9342 13.0161 19.2952 11.8881 19.6802C11.7222 19.7581 11.5362 19.7831 11.3555 19.752C11.1749 19.7208 11.0081 19.6348 10.8779 19.5057C10.7476 19.3767 10.6601 19.2108 10.6273 19.0304C10.5944 18.85 10.6178 18.6639 10.6942 18.4972C11.0882 17.3412 11.4632 16.1792 11.8602 15.0242C11.9244 14.8323 12.0298 14.6568 12.1691 14.5101C15.7405 10.9281 19.3155 7.35043 22.8941 3.7771C22.9251 3.7471 22.9621 3.71715 22.9991 3.68115Z" fill="#53575A"/>
</svg>
