<svg width="27" height="26" viewBox="0 0 27 26" fill="none" xmlns="http://www.w3.org/2000/svg">
<path d="M18.7783 22.3679C18.0972 22.482 17.4079 22.5398 16.7173 22.5409C14.6098 22.5635 12.5368 22.0066 10.7244 20.9309C10.8824 20.9309 11.0403 20.9639 11.2063 20.9639C17.7663 20.9639 23.2293 16.7818 24.3783 11.2828C25.5019 12.3798 26.1485 13.8749 26.1783 15.4448C26.1538 16.9121 25.5834 18.3175 24.5784 19.3868H24.5973V25.6948L18.7783 22.3679ZM2.52429 13.7449C1.51307 12.4208 0.95958 10.8038 0.947266 9.13782C0.947266 4.34682 5.53636 0.464844 11.1984 0.464844C16.8604 0.464844 21.4484 4.34682 21.4484 9.13782C21.4484 13.9288 16.8594 17.8119 11.1984 17.8119C9.68502 17.8141 8.1855 17.5238 6.78235 16.9569L2.52429 19.3868V13.7449Z" fill="#53575A"/>
</svg>
