<svg width="34" height="36" viewBox="0 0 34 36" fill="none" xmlns="http://www.w3.org/2000/svg">
<path d="M10.1892 32.5401H16.4972C16.4972 33.3765 16.1649 34.1788 15.5734 34.7703C14.9819 35.3618 14.1796 35.694 13.3432 35.694C12.5067 35.694 11.7044 35.3618 11.1129 34.7703C10.5214 34.1788 10.1892 33.3765 10.1892 32.5401ZM2.30422 30.963C2.10871 30.9748 1.91278 30.9479 1.72768 30.8839C1.54257 30.8199 1.37195 30.72 1.22548 30.59C1.07901 30.46 0.959534 30.3023 0.874041 30.1261C0.788548 29.9499 0.738667 29.7585 0.72719 29.563C0.72414 29.5034 0.72414 29.4437 0.72719 29.3841C0.703953 28.9893 0.838344 28.6015 1.10085 28.3058C1.36335 28.0101 1.73252 27.8307 2.12721 27.807C2.18621 27.807 2.24619 27.807 2.30519 27.807H3.09413C3.78168 27.2141 4.34479 26.4906 4.75075 25.6785C5.15671 24.8664 5.39757 23.9819 5.45925 23.0761V18.345C5.43926 16.274 6.24271 14.2799 7.69289 12.8012C9.14307 11.3225 11.1211 10.4803 13.1922 10.46H13.3441C15.4148 10.4395 17.4089 11.2424 18.8876 12.692C20.3663 14.1417 21.2086 16.1194 21.2291 18.1901C21.2291 18.2421 21.2291 18.29 21.2291 18.345V23.0761C21.2909 23.982 21.532 24.8665 21.9381 25.6786C22.3443 26.4907 22.9075 27.2142 23.5952 27.807H24.3832C24.5787 27.7953 24.7746 27.8221 24.9597 27.8861C25.1448 27.9501 25.3155 28.05 25.4619 28.1801C25.6084 28.3101 25.7278 28.4677 25.8132 28.6439C25.8987 28.8202 25.9487 29.0115 25.9602 29.207C25.9641 29.2667 25.9641 29.3264 25.9602 29.386C25.9721 29.5815 25.9453 29.7775 25.8814 29.9627C25.8174 30.1478 25.7175 30.3186 25.5874 30.4651C25.4574 30.6116 25.2997 30.731 25.1234 30.8164C24.9472 30.9019 24.7558 30.9517 24.5602 30.963C24.5006 30.9671 24.4408 30.9671 24.3812 30.963H2.30422Z" fill="#53575A"/>
<path d="M24.3822 15.193C27.866 15.193 30.6902 12.3688 30.6902 8.88503C30.6902 5.40121 27.866 2.57703 24.3822 2.57703C20.8984 2.57703 18.0742 5.40121 18.0742 8.88503C18.0742 12.3688 20.8984 15.193 24.3822 15.193Z" fill="#FFC06A"/>
<path d="M24.3822 16.77C28.737 16.77 32.2672 13.2398 32.2672 8.885C32.2672 4.53023 28.737 1 24.3822 1C20.0274 1 16.4972 4.53023 16.4972 8.885C16.4972 13.2398 20.0274 16.77 24.3822 16.77Z" stroke="white" stroke-width="2"/>
</svg>
