<svg width="15" height="15" viewBox="0 0 15 15" fill="none" xmlns="http://www.w3.org/2000/svg">
<path d="M0.940887 1.49097C0.831979 1.58211 0.743098 1.69486 0.679871 1.82202C0.751927 1.93147 0.836512 2.03196 0.931885 2.12183C2.58388 3.77583 4.23687 5.42788 5.89087 7.07788C6.05287 7.23888 6.22389 7.39287 6.41989 7.56787L7.24588 8.31885L6.30988 9.19092C6.08688 9.39692 5.87488 9.59102 5.67188 9.79102C6.93988 9.77002 8.22988 9.76581 9.52188 9.75781C9.71588 9.75781 9.75089 9.75787 9.75189 9.49487C9.75789 8.23587 9.76189 6.97602 9.75189 5.71802C9.54189 5.91802 9.35188 6.11783 9.15988 6.32983L8.33789 7.19897L7.28088 6.12085C6.88788 5.72085 6.52086 5.34299 6.14886 4.96899C4.77687 3.59299 3.40186 2.21892 2.02386 0.846924C1.96667 0.777243 1.89222 0.723766 1.80789 0.691895C1.72431 0.7232 1.65 0.775268 1.59189 0.843018C1.42489 1.00302 1.26188 1.16801 1.09988 1.33301L0.940887 1.49097Z" fill="#53575A"/>
<path d="M0.354311 14.4316H14.0923C14.1943 14.4407 14.297 14.426 14.3923 14.3886C14.4232 14.2901 14.4358 14.1865 14.4293 14.0834V0.347588C14.4399 0.238349 14.4212 0.128176 14.3753 0.0284961C14.3287 0.0111743 14.2789 0.00401828 14.2293 0.0075C11.9266 -0.0025 9.62232 -0.0025 7.31632 0.0075C7.16132 0.0075 7.13232 0.00762108 7.12232 0.231621C7.10732 0.575621 7.11232 0.920557 7.12232 1.26556C7.11187 1.39188 7.12823 1.51904 7.17032 1.6386C7.26763 1.66709 7.36905 1.67883 7.47031 1.67352H12.7383V12.7375H1.67331V7.51263C1.68355 7.39244 1.66823 7.27123 1.62833 7.1574C1.50958 7.13721 1.38966 7.12468 1.26932 7.11956C0.963319 7.11956 0.659304 7.11456 0.353304 7.11956C0.245107 7.113 0.13675 7.12921 0.0353104 7.16741C0.0103491 7.26538 -0.000748426 7.36641 0.00232092 7.46746C0.00232092 9.67346 0.00232092 11.8802 0.00232092 14.0876C-0.00613091 14.1895 0.00856781 14.2921 0.0453202 14.3876C0.144594 14.4218 0.249452 14.4367 0.354311 14.4316Z" fill="#53575A"/>
</svg>
