<svg width="38" height="25" viewBox="0 0 38 25" fill="none" xmlns="http://www.w3.org/2000/svg">
<path d="M19.2277 0.228097C22.6801 0.30215 26.0612 1.22415 29.0732 2.91291C32.0852 4.60167 34.6356 7.00531 36.4997 9.91206C37.3477 11.1561 37.2338 12.297 36.2418 12.965C35.2018 13.665 34.1568 13.3321 33.2518 12.0131C31.8313 9.78918 29.9112 7.92751 27.6444 6.57649C25.3776 5.22546 22.8267 4.42231 20.1948 4.23103C13.4438 3.67103 8.0848 6.27203 4.0998 11.731C3.9298 11.965 3.78581 12.219 3.60981 12.449C3.46998 12.6635 3.2887 12.848 3.07673 12.9915C2.86477 13.1351 2.62634 13.2348 2.37532 13.2851C2.1243 13.3354 1.86572 13.3351 1.61482 13.2842C1.36392 13.2334 1.12576 13.133 0.914136 12.989C0.702508 12.8449 0.521726 12.66 0.382398 12.4453C0.243069 12.2305 0.147899 11.9901 0.102612 11.7381C0.0573262 11.4861 0.0627805 11.2277 0.118604 10.9779C0.174427 10.728 0.279587 10.4918 0.427808 10.283C2.10098 7.58994 4.35871 5.3079 7.03376 3.60603C10.6865 1.32518 14.922 0.151921 19.2277 0.228097Z" fill="#61BD63"/>
<path d="M29.6279 15.8172C29.6579 16.2389 29.5539 16.6593 29.3309 17.0185C29.1078 17.3776 28.7771 17.6571 28.3858 17.8172C28.0315 17.9805 27.6331 18.0215 27.253 17.9337C26.8729 17.846 26.5326 17.6343 26.2858 17.3322C25.8088 16.8132 25.4288 16.2031 24.9478 15.6881C24.0706 14.7532 22.9984 14.0228 21.8072 13.5486C20.616 13.0745 19.3351 12.8683 18.0554 12.9446C16.7756 13.021 15.5283 13.378 14.4019 13.9904C13.2756 14.6028 12.2978 15.4556 11.5379 16.4882C11.4239 16.6432 11.3169 16.8042 11.2009 16.9582C11.0671 17.1988 10.8839 17.4083 10.6633 17.573C10.4427 17.7377 10.1897 17.8538 9.92095 17.9137C9.65224 17.9736 9.37385 17.976 9.10418 17.9206C8.83451 17.8652 8.5797 17.7533 8.35638 17.5923C8.13305 17.4313 7.94633 17.2248 7.80853 16.9865C7.67073 16.7481 7.58492 16.4834 7.55682 16.2095C7.52872 15.9356 7.55891 15.659 7.64544 15.3976C7.73197 15.1363 7.87291 14.8961 8.05889 14.6931C9.8257 11.9958 12.5697 10.0888 15.7138 9.3732C18.2216 8.78445 20.8496 8.97843 23.2437 9.92911C25.6378 10.8798 27.683 12.5415 29.1038 14.6902C29.3086 15.0511 29.4839 15.428 29.6279 15.8172Z" fill="#61BD63"/>
<path d="M18.6648 18.548C19.0825 18.5559 19.4945 18.6473 19.8764 18.8167C20.2584 18.9861 20.6025 19.2302 20.8888 19.5346C21.175 19.839 21.3974 20.1976 21.5431 20.5892C21.6887 20.9808 21.7546 21.3977 21.7368 21.8151C21.715 22.6519 21.3618 23.4457 20.7547 24.022C20.1477 24.5983 19.3365 24.9099 18.4997 24.8881C17.663 24.8664 16.8691 24.5131 16.2928 23.9061C15.7165 23.299 15.405 22.4878 15.4267 21.6511C15.4299 21.233 15.5169 20.8199 15.6825 20.436C15.848 20.0521 16.0889 19.7053 16.3907 19.4161C16.6926 19.1268 17.0493 18.901 17.4399 18.7519C17.8305 18.6028 18.247 18.5335 18.6648 18.548Z" fill="#61BD63"/>
</svg>
